<svg class="spotify-logo--text" width="131px" height="40px" viewBox="0 0 131 40" version="1.1" xmlns="http://www.w3.org/2000/svg" xmlns:xlink="http://www.w3.org/1999/xlink">
    <title>Motif for Spotify</title>
    <g id="main-logo" stroke="none" stroke-width="1" fill="none" fill-rule="evenodd">
        <g id="Group" transform="translate(0.000000, 7.000000)">
            <path d="M42.7756623,16.3333333 L40.8421634,16.3333333 L40.8421634,9.97959184 L38.3002208,16.3333333 L37.4619205,16.3333333 L34.9199779,9.97959184 L34.9199779,16.3333333 L33,16.3333333 L33,7.2585034 L35.6906733,7.2585034 L37.8810706,12.7414966 L40.071468,7.2585034 L42.7756623,7.2585034 L42.7756623,16.3333333 Z M47.5485651,16.4965986 C45.3987307,16.4965986 44.1007174,14.9183673 44.1007174,13.0408163 C44.1007174,11.1768707 45.3987307,9.59863946 47.5485651,9.59863946 C49.7119205,9.59863946 51.0099338,11.1768707 51.0099338,13.0408163 C51.0099338,14.9183673 49.7119205,16.4965986 47.5485651,16.4965986 Z M47.5485651,14.9591837 C48.6167219,14.9591837 49.2251656,14.0748299 49.2251656,13.0408163 C49.2251656,12.0204082 48.6167219,11.1360544 47.5485651,11.1360544 C46.4804084,11.1360544 45.8854857,12.0204082 45.8854857,13.0408163 C45.8854857,14.0748299 46.4804084,14.9591837 47.5485651,14.9591837 Z M54.4713024,16.4965986 C53.267936,16.4965986 52.6189294,15.8707483 52.6189294,14.7006803 L52.6189294,11.2721088 L51.5372517,11.2721088 L51.5372517,9.76190476 L52.6189294,9.76190476 L52.6189294,7.96598639 L54.3496137,7.96598639 L54.3496137,9.76190476 L55.6746689,9.76190476 L55.6746689,11.2721088 L54.3496137,11.2721088 L54.3496137,14.2380952 C54.3496137,14.6462585 54.5659492,14.9591837 54.9445364,14.9591837 C55.2014349,14.9591837 55.4448124,14.8639456 55.5394592,14.7687075 L55.9045254,16.0748299 C55.6476269,16.3061224 55.1879139,16.4965986 54.4713024,16.4965986 Z M57.7028146,9.05442177 C57.1484547,9.05442177 56.6752208,8.59183673 56.6752208,8.02040816 C56.6752208,7.44897959 57.1484547,7 57.7028146,7 C58.2706954,7 58.7304084,7.44897959 58.7304084,8.02040816 C58.7304084,8.59183673 58.2706954,9.05442177 57.7028146,9.05442177 Z M58.5681567,16.3333333 L56.8509934,16.3333333 L56.8509934,9.76190476 L58.5681567,9.76190476 L58.5681567,16.3333333 Z M62.3810706,16.3333333 L60.6503863,16.3333333 L60.6503863,11.2721088 L59.5687086,11.2721088 L59.5687086,9.76190476 L60.6503863,9.76190476 L60.6503863,9.40816327 C60.6503863,8.00680272 61.5427704,7.12244898 62.8543046,7.12244898 C63.4762693,7.12244898 64.1387969,7.28571429 64.557947,7.73469388 L63.9089404,8.75510204 C63.7331678,8.57823129 63.5033113,8.4829932 63.1923289,8.4829932 C62.7190949,8.4829932 62.3810706,8.79591837 62.3810706,9.40816327 L62.3810706,9.76190476 L63.7061258,9.76190476 L63.7061258,11.2721088 L62.3810706,11.2721088 L62.3810706,16.3333333 Z M70.2637969,16.3333333 L68.5331126,16.3333333 L68.5331126,11.2721088 L67.4514349,11.2721088 L67.4514349,9.76190476 L68.5331126,9.76190476 L68.5331126,9.40816327 C68.5331126,8.00680272 69.4254967,7.12244898 70.7370309,7.12244898 C71.3589956,7.12244898 72.0215232,7.28571429 72.4406733,7.73469388 L71.7916667,8.75510204 C71.615894,8.57823129 71.3860375,8.4829932 71.0750552,8.4829932 C70.6018212,8.4829932 70.2637969,8.79591837 70.2637969,9.40816327 L70.2637969,9.76190476 L71.5888521,9.76190476 L71.5888521,11.2721088 L70.2637969,11.2721088 L70.2637969,16.3333333 Z M75.6045806,16.4965986 C73.4547461,16.4965986 72.1567329,14.9183673 72.1567329,13.0408163 C72.1567329,11.1768707 73.4547461,9.59863946 75.6045806,9.59863946 C77.767936,9.59863946 79.0659492,11.1768707 79.0659492,13.0408163 C79.0659492,14.9183673 77.767936,16.4965986 75.6045806,16.4965986 Z M75.6045806,14.9591837 C76.6727373,14.9591837 77.281181,14.0748299 77.281181,13.0408163 C77.281181,12.0204082 76.6727373,11.1360544 75.6045806,11.1360544 C74.5364238,11.1360544 73.9415011,12.0204082 73.9415011,13.0408163 C73.9415011,14.0748299 74.5364238,14.9591837 75.6045806,14.9591837 Z M82.0540839,16.3333333 L80.3369205,16.3333333 L80.3369205,9.76190476 L82.0540839,9.76190476 L82.0540839,10.6598639 C82.5137969,10.0748299 83.3250552,9.59863946 84.1363135,9.59863946 L84.1363135,11.2857143 C84.0146247,11.2585034 83.8523731,11.244898 83.6630795,11.244898 C83.0951987,11.244898 82.3380243,11.5714286 82.0540839,11.9931973 L82.0540839,16.3333333 Z M91.910872,16.4965986 C90.1801876,16.4965986 88.9362583,15.9115646 88.0979581,15.0544218 L89.1390728,13.585034 C89.7745585,14.2517007 90.7615894,14.8095238 92.0055188,14.8095238 C93.0601545,14.8095238 93.5739514,14.3197279 93.5739514,13.8027211 C93.5739514,12.1972789 88.3818985,13.2993197 88.3818985,9.88435374 C88.3818985,8.37414966 89.6799117,7.12244898 91.8027042,7.12244898 C93.2359272,7.12244898 94.4257726,7.55782313 95.3181567,8.3877551 L94.25,9.80272109 C93.5198675,9.12244898 92.5463576,8.80952381 91.6269316,8.80952381 C90.8021523,8.80952381 90.3424393,9.17687075 90.3424393,9.72108844 C90.3424393,11.1632653 95.5209713,10.1972789 95.5209713,13.585034 C95.5209713,15.244898 94.3446468,16.4965986 91.910872,16.4965986 Z M100.51021,16.4965986 C99.7395143,16.4965986 99.0229029,16.170068 98.495585,15.4897959 L98.495585,18.8367347 L96.7784216,18.8367347 L96.7784216,9.76190476 L98.495585,9.76190476 L98.495585,10.5918367 C98.9958609,9.95238095 99.7124724,9.59863946 100.51021,9.59863946 C102.18681,9.59863946 103.403698,10.8503401 103.403698,13.0408163 C103.403698,15.2312925 102.18681,16.4965986 100.51021,16.4965986 Z M99.9693709,14.9591837 C100.956402,14.9591837 101.618929,14.1836735 101.618929,13.0408163 C101.618929,11.9115646 100.956402,11.1360544 99.9693709,11.1360544 C99.415011,11.1360544 98.7795254,11.462585 98.495585,11.8843537 L98.495585,14.2108844 C98.7795254,14.6190476 99.415011,14.9591837 99.9693709,14.9591837 Z M107.689845,16.4965986 C105.540011,16.4965986 104.241998,14.9183673 104.241998,13.0408163 C104.241998,11.1768707 105.540011,9.59863946 107.689845,9.59863946 C109.853201,9.59863946 111.151214,11.1768707 111.151214,13.0408163 C111.151214,14.9183673 109.853201,16.4965986 107.689845,16.4965986 Z M107.689845,14.9591837 C108.758002,14.9591837 109.366446,14.0748299 109.366446,13.0408163 C109.366446,12.0204082 108.758002,11.1360544 107.689845,11.1360544 C106.621689,11.1360544 106.026766,12.0204082 106.026766,13.0408163 C106.026766,14.0748299 106.621689,14.9591837 107.689845,14.9591837 Z M114.612583,16.4965986 C113.409216,16.4965986 112.76021,15.8707483 112.76021,14.7006803 L112.76021,11.2721088 L111.678532,11.2721088 L111.678532,9.76190476 L112.76021,9.76190476 L112.76021,7.96598639 L114.490894,7.96598639 L114.490894,9.76190476 L115.815949,9.76190476 L115.815949,11.2721088 L114.490894,11.2721088 L114.490894,14.2380952 C114.490894,14.6462585 114.70723,14.9591837 115.085817,14.9591837 C115.342715,14.9591837 115.586093,14.8639456 115.68074,14.7687075 L116.045806,16.0748299 C115.788907,16.3061224 115.329194,16.4965986 114.612583,16.4965986 Z M117.844095,9.05442177 C117.289735,9.05442177 116.816501,8.59183673 116.816501,8.02040816 C116.816501,7.44897959 117.289735,7 117.844095,7 C118.411976,7 118.871689,7.44897959 118.871689,8.02040816 C118.871689,8.59183673 118.411976,9.05442177 117.844095,9.05442177 Z M118.709437,16.3333333 L116.992274,16.3333333 L116.992274,9.76190476 L118.709437,9.76190476 L118.709437,16.3333333 Z M122.522351,16.3333333 L120.791667,16.3333333 L120.791667,11.2721088 L119.709989,11.2721088 L119.709989,9.76190476 L120.791667,9.76190476 L120.791667,9.40816327 C120.791667,8.00680272 121.684051,7.12244898 122.995585,7.12244898 C123.61755,7.12244898 124.280077,7.28571429 124.699227,7.73469388 L124.050221,8.75510204 C123.874448,8.57823129 123.644592,8.4829932 123.333609,8.4829932 C122.860375,8.4829932 122.522351,8.79591837 122.522351,9.40816327 L122.522351,9.76190476 L123.847406,9.76190476 L123.847406,11.2721088 L122.522351,11.2721088 L122.522351,16.3333333 Z M124.604581,18.9047619 L124.861479,17.3537415 C125.01021,17.4217687 125.240066,17.462585 125.402318,17.462585 C125.84851,17.462585 126.145971,17.3401361 126.308223,16.9863946 L126.5516,16.4285714 L123.90149,9.76190476 L125.740342,9.76190476 L127.443985,14.3333333 L129.147627,9.76190476 L131,9.76190476 L127.93074,17.4081633 C127.443985,18.6462585 126.578642,18.9727891 125.456402,19 C125.253587,19 124.820916,18.9591837 124.604581,18.9047619 Z" id="MotifforSpotify" fill="#FFFFFF" fill-rule="nonzero"></path>
            <g id="tags-icon-notext" fill="#1DB954">
                <path d="M-0.00855819948,10.9137895 L0.255789855,1.22813504 C0.270279403,0.697241194 0.697241194,0.270279403 1.22813504,0.255789855 L10.9137895,-0.00855819948 C11.188372,-0.0160523063 11.4539475,0.0897313856 11.6481789,0.28396278 L24.941395,13.5771789 C25.3319193,13.9677032 25.3319193,14.6008682 24.941395,14.9913925 L14.9913925,24.941395 C14.6008682,25.3319193 13.9677032,25.3319193 13.5771789,24.941395 L0.28396278,11.6481789 C0.0897313856,11.4539475 -0.0160523063,11.188372 -0.00855819948,10.9137895 Z M4.27249689,6.05821118 C5.25871966,6.05821118 6.05821118,5.25871966 6.05821118,4.27249689 C6.05821118,3.28627412 5.25871966,2.4867826 4.27249689,2.4867826 C3.28627412,2.4867826 2.4867826,3.28627412 2.4867826,4.27249689 C2.4867826,5.25871966 3.28627412,6.05821118 4.27249689,6.05821118 Z" id="Combined-Shape"></path>
            </g>
        </g>
    </g>
</svg>
