<?xml version="1.0" encoding="UTF-8"?>
<svg width="131px" height="40px" viewBox="0 0 131 40" version="1.1" xmlns="http://www.w3.org/2000/svg" xmlns:xlink="http://www.w3.org/1999/xlink">
    <!-- Generator: Sketch 53.2 (72643) - https://sketchapp.com -->
    <title>main-logo</title>
    <desc>Created with Sketch.</desc>
    <g id="main-logo" stroke="none" stroke-width="1" fill="none" fill-rule="evenodd">
        <g id="Spotify_Logo_CMYK_White" transform="translate(0.000000, 0.000000)" fill="#FFFFFE">
            <path d="M31.2928301,17.732619 C24.9668658,13.9157143 14.5323292,13.5647619 8.49344007,15.4269048 C7.52371199,15.7257143 6.4982093,15.1695238 6.2043381,14.1842857 C5.91046691,13.1985714 6.45743292,12.157381 7.42786404,11.8578571 C14.3600841,9.72 25.8838658,10.1328571 33.1664347,14.525 C34.0389088,15.0511905 34.3250465,16.1957143 33.8078426,17.0804762 C33.2904043,17.9666667 32.1629606,18.2588095 31.2928301,17.732619 Z M31.0856673,23.3859524 C30.6420483,24.117619 29.7004419,24.3469048 28.9812308,23.8978571 C23.7072504,20.6040476 15.6651628,19.65 9.42567263,21.5742857 C8.61647227,21.822619 7.76180859,21.3590476 7.51621288,20.5385714 C7.2722576,19.7164286 7.72876565,18.8497619 8.53632558,18.5997619 C15.6642254,16.402381 24.5248873,17.4666667 30.5822898,21.2488095 C31.3015009,21.6988095 31.5278801,22.6559524 31.0856673,23.3859524 Z M28.6843131,28.8152381 C28.3318551,29.402619 27.5786637,29.5869048 27.0026386,29.2288095 C22.3939696,26.3671429 16.5934114,25.7207143 9.76219499,27.3061905 C9.10391413,27.4595238 8.44797674,27.0402381 8.29776029,26.3716667 C8.14684079,25.7028571 8.55788551,25.0364286 9.21757245,24.8838095 C16.6932433,23.147381 23.1059159,23.8947619 28.2786583,27.1061905 C28.8553864,27.4640476 29.0370054,28.2295238 28.6843131,28.8152381 Z M19.6842147,0.0564285714 C8.84566369,0.0564285714 0.0590554562,8.98309524 0.0590554562,19.995 C0.0590554562,31.007619 8.84566369,39.9340476 19.6842147,39.9340476 C30.523,39.9340476 39.3091395,31.007619 39.3091395,19.995 C39.3091395,8.98309524 30.523,0.0564285714 19.6842147,0.0564285714 L19.6842147,0.0564285714 Z" id="Fill-1"></path>
            <path d="M53.4519839,18.4633333 C50.0635599,17.642381 49.4601163,17.0661905 49.4601163,15.8557143 C49.4601163,14.7116667 50.5203023,13.9421429 52.0965206,13.9421429 C53.6244633,13.9421429 55.1392826,14.5266667 56.7279213,15.73 C56.7759624,15.7664286 56.8361896,15.7809524 56.8954794,15.7714286 C56.9547692,15.762381 57.0070286,15.7295238 57.0419463,15.6795238 L58.6964365,13.31 C58.7643971,13.212381 58.7458837,13.0780952 58.654254,13.0033333 C56.7637764,11.4621429 54.6349678,10.7128571 52.1466708,10.7128571 C48.4880447,10.7128571 45.9324902,12.9435714 45.9324902,16.1352381 C45.9324902,19.5578571 48.1369928,20.7697619 51.9465385,21.7052381 C55.1889642,22.4640476 55.7361646,23.0995238 55.7361646,24.2361905 C55.7361646,25.4954762 54.6295778,26.2783333 52.8487746,26.2783333 C50.8711199,26.2783333 49.2576404,25.6014286 47.4529338,24.0135714 C47.4081735,23.9745238 47.3467746,23.9564286 47.2900626,23.9597619 C47.2305385,23.9647619 47.1759356,23.9928571 47.1379714,24.0392857 L45.2828801,26.282381 C45.2050769,26.3754762 45.2149195,26.5145238 45.3046744,26.595 C47.4046583,28.4995238 49.9869284,29.5057143 52.7737835,29.5057143 C56.7162039,29.5057143 59.2637907,27.3169048 59.2637907,23.9295238 C59.2637907,21.0666667 57.5802415,19.4833333 53.4519839,18.4633333" id="Fill-2"></path>
            <path d="M71.0451199,22.3002381 C71.0451199,24.717619 69.5795134,26.4045238 67.4809356,26.4045238 C65.4062612,26.4045238 63.8412916,24.6409524 63.8412916,22.3002381 C63.8412916,19.9597619 65.4062612,18.1959524 67.4809356,18.1959524 C69.5457674,18.1959524 71.0451199,19.9216667 71.0451199,22.3002381 Z M68.1832737,15.0680952 C66.474415,15.0680952 65.0727853,15.7519048 63.9169857,17.1530952 L63.9169857,15.5759524 C63.9169857,15.4514286 63.8176225,15.35 63.695059,15.35 L60.6612021,15.35 C60.5386386,15.35 60.4395098,15.4514286 60.4395098,15.5759524 L60.4395098,33.1002381 C60.4395098,33.2247619 60.5386386,33.3261905 60.6612021,33.3261905 L63.695059,33.3261905 C63.8176225,33.3261905 63.9169857,33.2247619 63.9169857,33.1002381 L63.9169857,27.5688095 C65.0730197,28.8869048 66.4748837,29.5307143 68.1832737,29.5307143 C71.3584419,29.5307143 74.572746,27.047381 74.572746,22.3002381 C74.572746,17.5521429 71.3584419,15.0680952 68.1832737,15.0680952 L68.1832737,15.0680952 Z" id="Fill-3"></path>
            <path d="M82.8119195,26.4297619 C80.6369445,26.4297619 78.9972182,24.6542857 78.9972182,22.3002381 C78.9972182,19.9364286 80.5802326,18.2207143 82.7617692,18.2207143 C84.950805,18.2207143 86.6015456,19.9961905 86.6015456,22.3519048 C86.6015456,24.7154762 85.0077513,26.4297619 82.8119195,26.4297619 Z M82.8119195,15.0680952 C78.7227979,15.0680952 75.5192737,18.2671429 75.5192737,22.3519048 C75.5192737,26.3921429 78.7007692,29.557619 82.7617692,29.557619 C86.8654204,29.557619 90.0787871,26.3692857 90.0787871,22.3002381 C90.0787871,18.2447619 86.887449,15.0680952 82.8119195,15.0680952 L82.8119195,15.0680952 Z" id="Fill-4"></path>
            <path d="M98.8110268,15.35 L95.4722844,15.35 L95.4722844,11.8819048 C95.4722844,11.757381 95.37339,11.6561905 95.2508265,11.6561905 L92.2172039,11.6561905 C92.0944061,11.6561905 91.9945742,11.757381 91.9945742,11.8819048 L91.9945742,15.35 L90.5357639,15.35 C90.4134347,15.35 90.3147746,15.4514286 90.3147746,15.5759524 L90.3147746,18.2252381 C90.3147746,18.3495238 90.4134347,18.4509524 90.5357639,18.4509524 L91.9945742,18.4509524 L91.9945742,25.3061905 C91.9945742,28.0764286 93.351678,29.4809524 96.0281556,29.4809524 C97.1164633,29.4809524 98.0194025,29.252619 98.8703166,28.762381 C98.939449,28.7230952 98.9825689,28.647381 98.9825689,28.5669048 L98.9825689,26.0440476 C98.9825689,25.9661905 98.9424955,25.8928571 98.8771127,25.8519048 C98.8110268,25.8097619 98.728771,25.807619 98.6610447,25.8416667 C98.0765832,26.1404762 97.5115725,26.2783333 96.8800072,26.2783333 C95.9067639,26.2783333 95.4722844,25.8295238 95.4722844,24.8230952 L95.4722844,18.4509524 L98.8110268,18.4509524 C98.9335903,18.4509524 99.0322504,18.3495238 99.0322504,18.2252381 L99.0322504,15.5759524 C99.0322504,15.4514286 98.9335903,15.35 98.8110268,15.35" id="Fill-5"></path>
            <path d="M110.443311,15.3635714 L110.443311,14.937619 C110.443311,13.6845238 110.916224,13.1257143 111.976878,13.1257143 C112.609381,13.1257143 113.117445,13.2533333 113.68644,13.4461905 C113.75651,13.4685714 113.829626,13.457381 113.886572,13.4147619 C113.945159,13.3721429 113.978202,13.3038095 113.978202,13.2314286 L113.978202,10.6338095 C113.978202,10.5347619 113.915397,10.4466667 113.821424,10.417381 C113.220324,10.2359524 112.451197,10.0492857 111.299615,10.0492857 C108.497059,10.0492857 107.015986,11.652619 107.015986,14.6842857 L107.015986,15.3366667 L105.558347,15.3366667 C105.436018,15.3366667 105.335717,15.4380952 105.335717,15.562381 L105.335717,18.2252381 C105.335717,18.3495238 105.436018,18.4509524 105.558347,18.4509524 L107.015986,18.4509524 L107.015986,29.0247619 C107.015986,29.1492857 107.11488,29.2504762 107.237209,29.2504762 L110.271066,29.2504762 C110.39363,29.2504762 110.493462,29.1492857 110.493462,29.0247619 L110.493462,18.4509524 L113.326249,18.4509524 L117.665653,29.0219048 C117.173055,30.132619 116.68866,30.3535714 116.027333,30.3535714 C115.492787,30.3535714 114.929886,30.1914286 114.354329,29.8714286 C114.300195,29.8411905 114.236218,29.8361905 114.177631,29.8545238 C114.119748,29.8754762 114.071004,29.9190476 114.046397,29.9764286 L113.018082,32.2685714 C112.969104,32.3769048 113.010818,32.5040476 113.113462,32.5602381 C114.187005,33.1509524 115.156265,33.4030952 116.353778,33.4030952 C118.594136,33.4030952 119.832426,32.342619 120.924249,29.4902381 L126.187918,15.6711905 C126.214165,15.6016667 126.206431,15.5233333 126.164483,15.4614286 C126.122769,15.4004762 126.055512,15.3635714 125.981927,15.3635714 L122.823397,15.3635714 C122.728955,15.3635714 122.644122,15.4245238 122.613188,15.515 L119.377558,24.9047619 L115.833528,15.5088095 C115.801188,15.4211905 115.718463,15.3635714 115.626365,15.3635714 L110.443311,15.3635714" id="Fill-6"></path>
            <path d="M103.699741,15.35 L100.665649,15.35 C100.543086,15.35 100.443488,15.4514286 100.443488,15.5759524 L100.443488,29.0247619 C100.443488,29.1492857 100.543086,29.2504762 100.665649,29.2504762 L103.699741,29.2504762 C103.82207,29.2504762 103.921902,29.1492857 103.921902,29.0247619 L103.921902,15.5759524 C103.921902,15.4514286 103.82207,15.35 103.699741,15.35" id="Fill-7"></path>
            <path d="M102.198045,9.22642857 C100.996313,9.22642857 100.020726,10.2152381 100.020726,11.4364286 C100.020726,12.6580952 100.996313,13.6478571 102.198045,13.6478571 C103.399542,13.6478571 104.373957,12.6580952 104.373957,11.4364286 C104.373957,10.2152381 103.399542,9.22642857 102.198045,9.22642857" id="Fill-8"></path>
            <path d="M128.90236,16.6878571 L128.346488,16.6878571 L128.346488,17.4080952 L128.90236,17.4080952 C129.179826,17.4080952 129.34551,17.2702381 129.34551,17.047619 C129.34551,16.8133333 129.179826,16.6878571 128.90236,16.6878571 Z M129.262785,17.7152381 L129.866698,18.5742857 L129.357462,18.5742857 L128.813776,17.7864286 L128.346488,17.7864286 L128.346488,18.5742857 L127.920211,18.5742857 L127.920211,16.297381 L128.919701,16.297381 C129.440186,16.297381 129.782801,16.5678571 129.782801,17.0235714 C129.782801,17.3969048 129.570483,17.625 129.262785,17.7152381 Z M128.789404,15.5395238 C127.695707,15.5395238 126.867993,16.4228571 126.867993,17.5045238 C126.867993,18.5854762 127.689848,19.4571429 128.778156,19.4571429 C129.871619,19.4571429 130.700036,18.5742857 130.700036,17.4921429 C130.700036,16.4109524 129.877712,15.5395238 128.789404,15.5395238 Z M128.778156,19.6740476 C127.577361,19.6740476 126.64302,18.6942857 126.64302,17.5045238 C126.64302,16.3145238 127.589547,15.3238095 128.789404,15.3238095 C129.989964,15.3238095 130.92454,16.3033333 130.92454,17.4921429 C130.92454,18.6819048 129.978716,19.6740476 128.778156,19.6740476 L128.778156,19.6740476 Z" id="Fill-9"></path>
        </g>
        <g id="Additional" transform="translate(56.000000, -3.000000)">
            <g id="tags-icon" transform="translate(10.000000, 10.000000) rotate(-45.000000) translate(-10.000000, -10.000000) translate(3.000000, 3.000000)" fill="#1DB954">
                <path d="M0.000372743721,5.92246539 L0.131875837,1.10422102 C0.146365385,0.573327175 0.573327175,0.146365385 1.10422102,0.131875837 L5.92246539,0.000372743721 C6.19704782,-0.00712136312 6.46262336,0.0986623288 6.65685475,0.292893724 L13.6560542,7.2920932 C14.0465785,7.68261749 14.0465785,8.31578247 13.6560542,8.70630676 L8.70630676,13.6560542 C8.31578247,14.0465785 7.68261749,14.0465785 7.2920932,13.6560542 L0.292893724,6.65685475 C0.0986623288,6.46262336 -0.00712136312,6.19704782 0.000372743721,5.92246539 Z M2.39259826,3.39259826 C2.94488301,3.39259826 3.39259826,2.94488301 3.39259826,2.39259826 C3.39259826,1.84031351 2.94488301,1.39259826 2.39259826,1.39259826 C1.84031351,1.39259826 1.39259826,1.84031351 1.39259826,2.39259826 C1.39259826,2.94488301 1.84031351,3.39259826 2.39259826,3.39259826 Z M7.73524617,11.420368 L11.508368,7.64724617 L10.3769971,6.51587532 L7.18087445,7.87917719 L8.54417633,4.68305454 L7.41846233,3.55734055 L3.64534055,7.33046233 L4.44861385,8.13373563 L7.09036478,5.4919847 L5.51210245,9.19722423 L5.86282741,9.5479492 L9.56806695,7.96968686 L6.92631601,10.6114378 L7.73524617,11.420368 Z" id="Combined-Shape"></path>
            </g>
            <rect id="Rectangle" fill="#1DB954" x="6.35050506" y="5.50050506" width="22" height="9" rx="1"></rect>
            <text id="Motif-for" font-family="ProximaNova-Bold, Proxima Nova" font-size="8" font-weight="bold" fill="#FFFFFF">
                <tspan x="7.35050506" y="12.6005051">Motif  for</tspan>
            </text>
        </g>
    </g>
</svg>